HIERARCHY
ROOT Hips
{
	OFFSET 0.000000 0.000000 0.000000
	CHANNELS 6 Xposition Yposition Zposition Zrotation Yrotation Xrotation 
	JOINT LHipJoint
	{
		OFFSET 0.000000 0.000000 0.000000
		CHANNELS 3 Zrotation Yrotation Xrotation
		JOINT LeftUpLeg
		{
			OFFSET 1.363060 -1.794630 0.839290
			CHANNELS 3 Zrotation Yrotation Xrotation
			JOINT LeftLeg
			{
				OFFSET 2.448110 -6.726130 0.000000
				CHANNELS 3 Zrotation Yrotation Xrotation
				JOINT LeftFoot
				{
					OFFSET 2.562200 -7.039590 0.000000
					CHANNELS 3 Zrotation Yrotation Xrotation
					JOINT LeftToeBase
					{
						OFFSET 0.157640 -0.433110 2.322550
						CHANNELS 3 Zrotation Yrotation Xrotation
						End Site
						{
							OFFSET 0.000000 0.000000 0.000000
						}
					}
				}
			}
		}
	}
	JOINT RHipJoint
	{
		OFFSET 0.000000 0.000000 0.000000
		CHANNELS 3 Zrotation Yrotation Xrotation
		JOINT RightUpLeg
		{
			OFFSET -1.305520 -1.794630 0.839290
			CHANNELS 3 Zrotation Yrotation Xrotation
			JOINT RightLeg
			{
				OFFSET -2.542530 -6.985550 0.000000
				CHANNELS 3 Zrotation Yrotation Xrotation
				JOINT RightFoot
				{
					OFFSET -2.568260 -7.056230 0.000000
					CHANNELS 3 Zrotation Yrotation Xrotation
					JOINT RightToeBase
					{
						OFFSET -0.164730 -0.452590 2.363150
						CHANNELS 3 Zrotation Yrotation Xrotation
						End Site
						{
							OFFSET 0.000000 0.000000 0.000000
						}
					}
				}
			}
		}
	}
	JOINT LowerBack
	{
		OFFSET 0.000000 0.000000 0.000000
		CHANNELS 3 Zrotation Yrotation Xrotation
		JOINT Spine
		{
			OFFSET 0.028270 2.035590 -0.193380
			CHANNELS 3 Zrotation Yrotation Xrotation
			JOINT Spine1
			{
				OFFSET 0.056720 2.048850 -0.042750
				CHANNELS 3 Zrotation Yrotation Xrotation
				JOINT Neck
				{
					OFFSET 0.000000 0.000000 0.000000
					CHANNELS 3 Zrotation Yrotation Xrotation
					JOINT Neck1
					{
						OFFSET -0.054170 1.746240 0.172020
						CHANNELS 3 Zrotation Yrotation Xrotation
						JOINT Head
						{
							OFFSET 0.104070 1.761360 -0.123970
							CHANNELS 3 Zrotation Yrotation Xrotation
							End Site
							{
								OFFSET 0.000000 0.000000 0.000000
							}
						}
					}
				}
				JOINT LeftShoulder
				{
					OFFSET 0.000000 0.000000 0.000000
					CHANNELS 3 Zrotation Yrotation Xrotation
					JOINT LeftArm
					{
						OFFSET 3.362410 1.200890 -0.311210
						CHANNELS 3 Zrotation Yrotation Xrotation
						JOINT LeftForeArm
						{
							OFFSET 4.983000 -0.000000 -0.000000
							CHANNELS 3 Zrotation Yrotation Xrotation
							JOINT LeftHand
							{
								OFFSET 3.483560 -0.000000 -0.000000
								CHANNELS 3 Zrotation Yrotation Xrotation
								JOINT LeftFingerBase
								{
									OFFSET 0.000000 0.000000 0.000000
									CHANNELS 3 Zrotation Yrotation Xrotation
									JOINT LeftHandIndex1
									{
										OFFSET 0.715260 -0.000000 -0.000000
										CHANNELS 3 Zrotation Yrotation Xrotation
										End Site
										{
											OFFSET 0.000000 0.000000 0.000000
										}
									}
								}
								JOINT LThumb
								{
									OFFSET 0.000000 0.000000 0.000000
									CHANNELS 3 Zrotation Yrotation Xrotation
									End Site
									{
										OFFSET 0.000000 0.000000 0.000000
									}
								}
							}
						}
					}
				}
				JOINT RightShoulder
				{
					OFFSET 0.000000 0.000000 0.000000
					CHANNELS 3 Zrotation Yrotation Xrotation
					JOINT RightArm
					{
						OFFSET -3.136600 1.374050 -0.404650
						CHANNELS 3 Zrotation Yrotation Xrotation
						JOINT RightForeArm
						{
							OFFSET -5.241900 -0.000000 -0.000000
							CHANNELS 3 Zrotation Yrotation Xrotation
							JOINT RightHand
							{
								OFFSET -3.444170 -0.000000 -0.000000
								CHANNELS 3 Zrotation Yrotation Xrotation
								JOINT RightFingerBase
								{
									OFFSET 0.000000 0.000000 0.000000
									CHANNELS 3 Zrotation Yrotation Xrotation
									JOINT RightHandIndex1
									{
										OFFSET -0.622530 -0.000000 -0.000000
										CHANNELS 3 Zrotation Yrotation Xrotation
										End Site
										{
											OFFSET 0.000000 0.000000 0.000000
										}
									}
								}
								JOINT RThumb
								{
									OFFSET 0.000000 0.000000 0.000000
									CHANNELS 3 Zrotation Yrotation Xrotation
									End Site
									{
										OFFSET 0.000000 0.000000 0.000000
									}
								}
							}
						}
					}
				}
			}
		}
	}
}
MOTION
Frames: 9
Frame Time: 0.008333
4.096475 18.343240 2.345693 167.355998 -87.513157 -129.543109 -11.585376 1.242238 0.956218 -7.205744 9.387435 -40.113064 -0.412340 1.321918 37.872608 1.991582 9.995611 26.686248 5.091200 -0.000000 -63.399800 10.859701 -0.858544 0.014394 6.086081 -12.416107 -44.493683 0.702839 -3.380357 45.991766 -1.531190 -7.257433 16.405741 -3.101700 0.000000 -79.432500 -0.271365 -1.084784 -0.699012 -0.136572 -1.052668 -3.113328 -2.546036 -1.059401 -1.380812 1.358925 -6.363938 -0.840104 -1.349858 -0.191937 1.667289 0.000000 0.000000 0.000000 12.922848 -1.526940 -1.161109 -55.845870 -37.596384 1.074722 179.776420 -71.564336 179.855360 10.890490 -5.324810 -0.600287 -0.181837 0.872146 0.000000 0.000000 0.000000 0.000000 0.000000 0.000000 0.000000 -4.237781 -2.466572 0.755097 47.483431 49.736345 9.627818 0.101007 85.656296 -0.136223 -15.105422 8.502073 -1.235174 0.221144 -0.662551 -0.000000 0.000000 0.000000 0.000000 0.000000 0.000000 0.000000 
3.923105 18.485592 2.322929 166.605204 -87.444684 -128.211573 -11.468651 1.046350 0.935447 -7.546668 9.099562 -42.265260 -0.372100 1.484291 40.142524 2.071751 10.860665 25.376550 5.435600 0.000000 -61.108400 10.819272 -0.624451 0.202128 5.976833 -11.721939 -46.745314 0.599008 -3.570437 48.124431 -1.721444 -8.469570 13.971614 -3.374300 -0.000000 -77.831499 -0.292821 -1.090638 -0.813503 -0.121568 -1.057349 -3.107962 -2.423405 -1.064763 -1.302637 1.190113 -6.515896 -0.855915 -1.284207 -0.187424 1.656338 0.000000 0.000000 0.000000 13.325517 -0.757877 -1.215978 -53.966775 -38.316304 -0.978190 179.700534 -68.083166 179.844946 11.379118 -5.390784 -0.637810 -0.204678 0.899153 0.000000 0.000000 0.000000 0.000000 0.000000 0.000000 0.000000 -4.910199 -2.818232 0.594791 44.624248 50.405481 6.716829 0.126096 88.700638 -0.148661 -15.751410 8.938330 -1.355274 0.232771 -0.696272 -0.000000 0.000000 0.000000 0.000000 0.000000 0.000000 0.000000 
3.756609 18.614990 2.300547 164.691988 -87.426378 -125.606467 -11.329809 0.835206 0.918045 -7.925283 8.610401 -44.669934 -0.325466 1.679123 42.583228 2.143152 11.630212 23.658254 5.647200 -0.000000 -59.346100 10.785158 -0.361358 0.394172 5.794865 -10.971669 -49.184632 0.494858 -3.780248 50.271175 -1.890847 -9.379352 11.502174 -3.441000 0.000000 -76.508900 -0.311112 -1.104344 -0.904376 -0.102430 -1.069530 -3.102727 -2.288374 -1.079501 -1.231501 1.000357 -6.716850 -0.925814 -1.189789 -0.180087 1.628533 0.000000 0.000000 0.000000 13.783219 0.081388 -1.245428 -52.085025 -39.025642 -3.231408 179.621151 -64.891672 179.834934 11.864962 -5.402578 -0.669954 -0.229092 0.921965 0.000000 0.000000 0.000000 0.000000 0.000000 0.000000 0.000000 -5.734627 -3.213381 0.400821 41.776569 50.839592 3.449827 -179.829111 88.198385 179.840136 -16.223874 8.918378 -1.397905 0.243997 -0.722992 -0.000000 0.000000 0.000000 0.000000 0.000000 0.000000 0.000000 
3.596109 18.731827 2.278514 161.728747 -87.439048 -121.857295 -11.175560 0.615539 0.904470 -8.326110 7.947013 -47.269444 -0.272105 1.899395 45.079631 2.207797 12.263787 21.729692 5.723800 -0.000000 -58.083700 10.754996 -0.073353 0.583690 5.533894 -10.200866 -51.772763 0.389984 -4.004866 52.366186 -2.026989 -9.963752 9.168089 -3.344500 -0.000000 -75.346600 -0.327993 -1.129306 -0.964535 -0.080204 -1.092164 -3.098858 -2.143682 -1.106818 -1.179592 0.799786 -6.915831 -1.030521 -1.085056 -0.171270 1.588840 0.000000 0.000000 0.000000 14.298164 0.983529 -1.252494 -50.237150 -39.647457 -5.657495 179.545362 -61.989428 179.825921 12.322542 -5.351391 -0.693314 -0.254124 0.939252 0.000000 0.000000 0.000000 0.000000 0.000000 0.000000 0.000000 -6.580605 -3.637686 0.166350 38.887326 50.998129 -0.008202 -179.758312 85.372039 179.822234 -17.449573 10.028712 -1.686916 0.267296 -0.766290 -0.000000 0.000000 0.000000 0.000000 0.000000 0.000000 0.000000 
3.440644 18.836676 2.256994 157.894520 -87.469809 -117.164323 -11.011072 0.390526 0.894084 -8.728069 7.146311 -50.009098 -0.212387 2.137714 47.530982 2.265587 12.740172 19.766652 5.684000 -0.000000 -57.222400 10.724656 0.233268 0.766916 5.199579 -9.433437 -54.464110 0.284661 -4.238038 54.339921 -2.122825 -10.245477 7.114620 -3.150500 0.000000 -74.350600 -0.345284 -1.155795 -0.991768 -0.055020 -1.115475 -3.094787 -1.988121 -1.136467 -1.140113 0.592572 -7.124091 -1.158778 -0.967721 -0.161037 1.540986 0.000000 0.000000 0.000000 14.865307 1.913680 -1.240895 -48.458127 -40.146886 -8.213179 179.483520 -59.385336 179.818402 12.726603 -5.237416 -0.705579 -0.278977 0.950689 -0.000000 0.000000 0.000000 0.000000 0.000000 0.000000 0.000000 -7.466967 -4.077201 -0.092996 35.991320 50.860461 -3.654128 -179.670044 82.665854 179.802208 -18.968510 11.408113 -2.081530 0.297589 -0.812133 -0.000000 0.000000 0.000000 0.000000 0.000000 0.000000 0.000000 
3.289129 18.930210 2.236237 153.392390 -87.507319 -111.748033 -10.842324 0.162155 0.886852 -9.110935 6.245291 -52.841457 -0.147423 2.386334 49.849999 2.315956 13.061998 17.923964 5.565100 0.000000 -56.758700 10.687453 0.551005 0.942104 4.803738 -8.682562 -57.215930 0.179757 -4.472112 56.132095 -2.177400 -10.276538 5.439436 -2.923100 0.000000 -73.778900 -0.360947 -1.177250 -0.987077 -0.026617 -1.133177 -3.088050 -1.823268 -1.161710 -1.102191 0.384193 -7.345774 -1.299186 -0.837528 -0.149566 1.488606 0.000000 0.000000 0.000000 15.470418 2.847738 -1.214074 -46.771178 -40.504297 -10.851179 179.446281 -57.081612 179.812779 13.053981 -5.073988 -0.706431 -0.302827 0.956614 -0.000000 0.000000 0.000000 0.000000 0.000000 0.000000 0.000000 -8.402818 -4.521736 -0.361404 33.126519 50.419597 -7.468796 -179.574922 79.983117 179.784048 -20.406914 12.492185 -2.451857 0.330559 -0.851035 -0.000000 0.000000 0.000000 0.000000 0.000000 0.000000 0.000000 
3.140099 19.012822 2.215857 148.364186 -87.537609 -105.760362 -10.670772 -0.064742 0.885607 -9.470001 5.274213 -55.734198 -0.079407 2.637313 51.967878 2.357359 13.245231 16.311348 5.407400 -0.000000 -56.571000 10.641352 0.872057 1.114209 4.351633 -7.954413 -60.007137 0.076978 -4.702233 57.716137 -2.191704 -10.099711 4.149685 -2.697801 -0.000000 -73.397800 -0.383348 -1.190637 -0.963370 0.001835 -1.141965 -3.079135 -1.653712 -1.178830 -1.058496 0.188060 -7.568084 -1.436586 -0.701767 -0.137596 1.436479 0.000000 0.000000 0.000000 16.106409 3.758753 -1.177423 -45.193360 -40.694413 -13.517214 179.441246 -55.073245 179.809353 13.285015 -4.870256 -0.695661 -0.324837 0.957353 -0.000000 0.000000 0.000000 0.000000 0.000000 0.000000 0.000000 -9.342324 -4.960322 -0.626487 30.302882 49.669647 -11.384649 -179.482370 77.345159 179.768249 -21.766624 13.298375 -2.786887 0.366817 -0.882702 -0.000000 0.000000 0.000000 0.000000 0.000000 0.000000 0.000000 
2.992457 19.085017 2.195941 143.029234 -87.554493 -99.431583 -10.500582 -0.288750 0.891614 -9.792758 4.259564 -58.657392 -0.010735 2.884186 53.834761 2.389515 13.316114 15.004411 5.248500 -0.000001 -56.638300 10.580808 1.188158 1.285427 3.854996 -7.248330 -62.809459 -0.021339 -4.922043 59.064827 -2.173250 -9.778613 3.235989 -2.501300 -0.000000 -73.303800 -0.408520 -1.195424 -0.927670 0.030106 -1.141837 -3.066482 -1.484188 -1.187381 -1.000577 0.009960 -7.782964 -1.561032 -0.566715 -0.125727 1.387737 0.000000 0.000000 0.000000 16.749979 4.637842 -1.134873 -43.725125 -40.717458 -16.160510 179.474314 -53.354096 179.808212 13.408381 -4.648201 -0.675864 -0.344386 0.953921 -0.000000 0.000000 0.000000 0.000000 0.000000 0.000000 0.000000 -10.251437 -5.389007 -0.879457 27.535458 48.630600 -15.339979 -179.401548 74.780073 179.755159 -23.046595 13.835018 -3.075211 0.406533 -0.906693 -0.000000 0.000000 0.000000 0.000000 0.000000 0.000000 0.000000 
2.844976 19.147059 2.176217 137.572442 -87.552793 -92.952397 -10.332608 -0.506776 0.907235 -10.075667 3.220361 -61.590126 0.055354 3.121477 55.418832 2.412418 13.302343 14.031708 5.114900 -0.000000 -56.869300 10.504701 1.491969 1.460747 3.318782 -6.562320 -65.607213 -0.112441 -5.127776 60.172335 -2.130366 -9.364711 2.639423 -2.339599 0.000000 -73.381600 -0.437767 -1.191942 -0.891728 0.056506 -1.133379 -3.049932 -1.319698 -1.187563 -0.921567 -0.143274 -7.986134 -1.664832 -0.438403 -0.114531 1.344924 0.000000 0.000000 0.000000 17.382595 5.474979 -1.091587 -42.361681 -40.578631 -18.729709 179.546225 -51.912871 179.809266 13.421960 -4.425340 -0.649634 -0.361045 0.947305 -0.000000 0.000000 0.000000 0.000000 0.000000 0.000000 0.000000 -11.095702 -5.807208 -1.112114 24.839779 47.327984 -19.277470 -179.340344 72.315984 179.744936 -24.248865 14.113328 -3.308220 0.449626 -0.922650 -0.000000 0.000000 0.000000 0.000000 0.000000 0.000000 0.000000 
